<?xml version="1.0" encoding="UTF-8" standalone="no"?>
<!-- Created with Inkscape (http://www.inkscape.org/) -->

<svg
   width="200mm"
   height="200mm"
   viewBox="0 0 200 200"
   version="1.1"
   id="svg902"
   sodipodi:docname="bpcplot.svg"
   inkscape:version="1.4.2 (1:1.4.2+202505120738+ebf0e940d0)"
   xml:space="preserve"
   inkscape:export-filename="FloodmaprLogo.png"
   inkscape:export-xdpi="97.154999"
   inkscape:export-ydpi="97.154999"
   xmlns:inkscape="http://www.inkscape.org/namespaces/inkscape"
   xmlns:sodipodi="http://sodipodi.sourceforge.net/DTD/sodipodi-0.dtd"
   xmlns="http://www.w3.org/2000/svg"
   xmlns:svg="http://www.w3.org/2000/svg"
   xmlns:rdf="http://www.w3.org/1999/02/22-rdf-syntax-ns#"
   xmlns:cc="http://creativecommons.org/ns#"
   xmlns:dc="http://purl.org/dc/elements/1.1/"><defs
     id="defs896"><clipPath
       clipPathUnits="userSpaceOnUse"
       id="clipPath1568"><path
         sodipodi:type="star"
         style="fill:#ffffff;fill-opacity:1;stroke:#000000;stroke-width:18.89763832;stroke-miterlimit:4;stroke-dasharray:none;stroke-opacity:1"
         id="path1570"
         sodipodi:sides="6"
         sodipodi:cx="387.14285"
         sodipodi:cy="374.47693"
         sodipodi:r1="360.10202"
         sodipodi:r2="311.85751"
         sodipodi:arg1="1.5707963"
         sodipodi:arg2="2.0943951"
         inkscape:flatsided="true"
         inkscape:rounded="0"
         inkscape:randomized="0"
         d="m 387.14286,734.57895 -311.8575,-180.051 -1e-5,-360.10202 311.85749,-180.051022 311.85751,180.051002 10e-6,360.10202 z"
         inkscape:transform-center-x="1.2571428e-06"
         clip-path="none"
         transform="matrix(0.35210519,0.35178423,-0.35178423,0.35210519,264.37957,-24.389724)" /></clipPath><rect
       x="58.881992"
       y="170.82594"
       width="280.98902"
       height="61.395065"
       id="rect113" /><rect
       x="58.881992"
       y="170.82594"
       width="525.54309"
       height="225.3261"
       id="rect113-7" /><rect
       x="58.881992"
       y="170.82594"
       width="525.54309"
       height="225.3261"
       id="rect113-7-3" /><clipPath
       clipPathUnits="userSpaceOnUse"
       id="clipPath494"><rect
         style="fill:#6394eb;stroke:#000000;stroke-width:0"
         id="rect496"
         width="49.415257"
         height="47.61367"
         x="38.908112"
         y="146.65323" /></clipPath><rect
       x="58.881992"
       y="170.82594"
       width="280.98902"
       height="61.395065"
       id="rect113-6" /><rect
       x="58.881992"
       y="170.82594"
       width="525.54309"
       height="225.3261"
       id="rect113-7-7" /><rect
       x="58.881992"
       y="170.82594"
       width="525.54309"
       height="225.3261"
       id="rect113-7-3-5" /><clipPath
       clipPathUnits="userSpaceOnUse"
       id="clipPath494-3"><rect
         style="fill:#6394eb;stroke:#000000;stroke-width:0"
         id="rect496-5"
         width="49.415257"
         height="47.61367"
         x="38.908112"
         y="146.65323" /></clipPath></defs><sodipodi:namedview
     id="base"
     pagecolor="#ffffff"
     bordercolor="#666666"
     borderopacity="1.0"
     inkscape:pageopacity="0.0"
     inkscape:pageshadow="2"
     inkscape:zoom="0.68187056"
     inkscape:cx="362.23884"
     inkscape:cy="450.23208"
     inkscape:document-units="mm"
     inkscape:current-layer="layer1"
     showgrid="false"
     inkscape:window-width="1920"
     inkscape:window-height="1008"
     inkscape:window-x="0"
     inkscape:window-y="0"
     inkscape:window-maximized="1"
     inkscape:snap-text-baseline="true"
     inkscape:showpageshadow="2"
     inkscape:pagecheckerboard="0"
     inkscape:deskcolor="#d1d1d1" /><metadata
     id="metadata899"><rdf:RDF><cc:Work
         rdf:about=""><dc:format>image/svg+xml</dc:format><dc:type
           rdf:resource="http://purl.org/dc/dcmitype/StillImage" /></cc:Work></rdf:RDF></metadata><g
     inkscape:label="Ebene 1"
     inkscape:groupmode="layer"
     id="layer1"
     transform="translate(0,-97)"><path
       id="path2"
       style="display:inline;opacity:0.8;stroke:none;stroke-width:0.500335;stroke-dasharray:3.0209, 3.0209;fill:#cf9b61;fill-opacity:1"
       d="m 75.007014,117.81542 c -0.167093,0.0172 -0.407639,0.55834 -0.539487,1.21757 -0.212577,1.06291 0.144581,1.81776 2.811281,5.94329 l 3.054796,4.72573 0.379126,4.09516 c 0.208674,2.2524 0.551179,4.26721 0.761224,4.47725 0.253051,0.25313 0.800393,0.23609 1.621436,-0.0506 2.017378,-0.70327 2.1859,-0.49614 0.510783,0.62659 -0.865607,0.58021 -2.969579,2.23656 -4.67524,3.68142 -2.95205,2.50055 -3.15108,2.77145 -4.145652,5.62849 l -1.045322,3.00133 -5.745309,3.96749 c -3.160036,2.18206 -6.074952,4.43019 -6.477829,4.99596 -0.453748,0.63722 -0.730121,1.66425 -0.726579,2.69844 0.007,2.01675 0.834946,3.05473 6.064055,7.59836 2.696093,2.34268 3.780068,3.06156 4.417871,2.9291 0.46487,-0.0965 2.919649,-0.36543 5.455274,-0.59691 2.535623,-0.23176 6.430893,-0.66658 8.65558,-0.96613 2.224688,-0.29955 4.385367,-0.47459 4.801949,-0.38903 0.416592,0.0854 1.211802,0.25037 1.76695,0.36626 1.42607,0.29792 2.189417,1.65844 3.982318,7.10245 0.86406,2.62374 1.822926,4.89683 2.131234,5.0514 0.308271,0.15466 2.635547,0.75772 5.171167,1.34029 6.09148,1.39956 8.498,2.40435 15.38387,6.41943 4.62602,2.69742 6.36584,3.96216 8.75654,6.36696 l 2.98254,3.00036 0.59095,3.622 c 1.1509,7.05627 -0.53073,16.60218 -7.54295,42.81664 -4.20278,15.71165 -4.07579,24.27828 -9.43721,31.44625 l 1.09908,3.74936 c 0,0 15.96921,-7.18422 15.37266,-7.18422 h -9.6e-4 -0.001 c -0.001,-3.7e-4 -0.004,-10e-4 -0.007,-10e-4 -0.0801,-0.0439 -0.0676,-0.76037 0.0306,-1.63037 1.064,-9.39423 2.95114,-22.1494 8.93037,-35.94533 l 2.644,-6.10267 4.32087,-3.84769 4.32084,-3.8477 -0.25044,-5.51368 c -0.15176,-3.33969 -0.10846,-5.51368 0.1087,-5.51368 0.19743,0 1.42008,1.07986 2.71725,2.4005 l 2.35789,2.40146 3.27854,10.181 c 2.88272,8.95359 6.22278,23.82051 6.22672,26.43947 3.9e-4,0.22053 -0.13066,0.53445 -0.3633,0.91862 4.12129,-4.74479 11.70546,-2.69401 14.73311,-8.2094 -0.18312,-0.43331 -6.23965,-18.888 -6.48072,-22.12826 -0.26343,-3.53926 -0.57566,-7.08314 -0.69391,-7.87556 l -0.21481,-1.44027 h 4.27532 c 1.72293,0 5.63807,0.23378 6.31323,0.30596 0.6677,-8.85757 1.57528,-17.60169 1.57519,-26.53996 -1.4e-4,-9.67025 -0.9075,-18.88682 -0.9075,-28.10446 -0.92343,0.26708 -8.01299,-0.45567 -16.29677,-1.74363 l -9.8365,-1.5294 -6.13334,1.54029 c -6.51075,1.63464 -10.54952,3.0044 -12.62405,4.28225 -0.69786,0.42983 -1.35197,0.69912 -1.45316,0.59789 -0.29623,-0.29625 5.0076,-5.80064 6.75896,-7.01433 1.50017,-1.03962 1.55768,-1.14407 0.89585,-1.64322 -1.10353,-0.83235 -13.69619,-7.07727 -18.2773,-9.0644 -4.50739,-1.95515 -13.41518,-5.30263 -13.60504,-5.11279 -0.0653,0.0653 -0.56659,1.66307 -1.1136,3.55074 -0.87054,3.00398 -2.9578,7.47067 -3.49133,7.47067 -0.10265,0 -0.0724,-0.18542 0.0671,-0.41177 0.13984,-0.22603 0.4073,-1.62714 0.59392,-3.11322 0.53112,-4.2299 -0.37171,-9.33093 -2.3391,-13.22193 -3.64658,-7.21197 -13.120952,-15.66502 -18.543576,-16.54501 -1.62063,-0.26298 -4.123876,0.73355 -4.123876,1.64224 0,0.3641 0.273533,2.11759 0.606803,3.89621 0.333265,1.77859 0.531769,3.30801 0.44149,3.39828 l -9.91e-4,9.9e-4 -9.89e-4,0.001 v 9.6e-4 h -9.89e-4 -9.91e-4 -9.9e-4 c -0.110253,0.0546 -0.889388,-0.96801 -1.751112,-2.30048 -1.444217,-2.23316 -7.376061,-8.30813 -8.112133,-8.30813 -0.0028,0 -0.0051,-2.8e-4 -0.0079,0 z M 49.162026,263.95061 c 0.384152,0.24818 0.77022,0.49336 1.158172,0.73551 v -0.13275 z m -0.09502,-96.19137 c -0.421436,0 -2.228891,2.33625 -3.986281,5.15336 -3.540524,5.67546 -7.370661,14.34503 -10.087948,22.83276 -4.2412,13.24785 -5.73653,22.82171 -5.820542,37.2673 -0.02544,4.36332 0.507118,10.21952 0.419713,9.79693 -0.08741,-0.42262 -1.547391,-5.90649 -2.480661,-8.97038 -3.047595,-10.00524 -3.302228,-13.92863 -1.66994,-25.71233 0.368037,-2.65682 0.615179,-4.89127 0.550377,-4.96528 -0.337876,-0.38586 -0.981353,0.60883 -2.016401,3.11319 -1.913671,4.63035 -2.671133,11.38173 -2.402459,21.41722 0.121639,4.54297 -3.236913,14.48409 -3.24234,14.52345 -0.0017,0.0129 -0.122686,-0.18139 -0.329635,-0.53255 v 0.70974 c 4.938559,7.42992 17.748953,12.89287 30.85428,21.35109 l 0.06631,-5.21078 c 0.113337,-8.79733 1.933898,-14.19994 6.667886,-21.99629 3.890491,-6.40725 6.234034,-9.01625 14.130652,-15.73031 1.81571,-1.54378 3.231401,-2.88689 3.185459,-3.01816 l -9.88e-4,-10e-4 h -9.92e-4 v -0.001 -9.6e-4 l -9.9e-4,-10e-4 c -0.35373,-0.35381 -6.296881,3.18282 -9.743468,5.79777 -4.463271,3.38635 -10.945853,10.10658 -13.520881,14.01682 -1.94666,2.95599 -4.97253,8.92803 -6.366961,12.56761 -0.672845,1.75616 -1.117769,3.68397 -1.259137,3.73287 -5.55e-4,1.4e-4 -0.003,-2.1e-4 -0.0041,0 l -9.91e-4,10e-4 h -9.91e-4 v -10e-4 h -9.89e-4 -9.89e-4 c -0.137622,-0.046 0.651312,-6.12154 1.546203,-9.68505 2.372203,-9.44622 5.516754,-16.78786 8.915924,-21.90127 5.006472,-7.53129 10.190435,-12.71164 20.673813,-20.65899 3.546913,-2.6889 6.453518,-5.00955 6.459019,-5.15732 0.01483,-0.3945 -4.814485,2.39149 -10.856103,6.26302 -13.407837,8.59196 -18.878686,15.84637 -27.480284,29.7125 -0.598492,0.94485 -2.911703,4.11703 -3.019157,4.24265 -0.01896,-0.37804 0.138861,-4.2515 0.223714,-4.992 0.47945,-5.15543 1.868031,-10.62311 3.948664,-17.05675 2.25107,-6.96063 3.782693,-10.35805 8.91394,-19.7651 2.057576,-3.77216 3.662615,-6.93713 3.566568,-7.03315 -0.192356,-0.19233 -3.400454,3.6883 -7.126203,8.61894 -4.321037,5.71836 -9.38593,14.92144 -11.378764,20.67679 l -1.089869,3.39334 -0.126714,-6.31648 c -0.139264,-6.93408 1.499172,-14.017 2.529162,-19.20385 0.949559,-4.78177 2.294697,-9.2721 7.780523,-19.88189 2.103147,-4.06758 3.715451,-7.39545 3.582405,-7.39545 z"
       sodipodi:nodetypes="csccccccccccscsccsccccsccccsccscccccccccscccccccccscccsccscscsscsccsssssccccccsscccccccsscscsscscccccsscccccsscscccccccssscccccsssccccsscc" /><path
       sodipodi:type="star"
       style="display:inline;fill:none;fill-opacity:1;stroke:#000000;stroke-width:4;stroke-miterlimit:4;stroke-dasharray:none;stroke-opacity:1"
       id="path904-0"
       sodipodi:sides="6"
       sodipodi:cx="100.84282"
       sodipodi:cy="197.35464"
       sodipodi:r1="95.276993"
       sodipodi:r2="82.512299"
       sodipodi:arg1="1.5707963"
       sodipodi:arg2="2.0943951"
       inkscape:flatsided="true"
       inkscape:rounded="0"
       inkscape:randomized="0"
       d="m 100.84282,292.63164 -82.512296,-47.6385 -2e-6,-95.27699 82.512298,-47.6385 82.51229,47.6385 1e-5,95.27699 z"
       inkscape:transform-center-x="1.2571428e-06"
       clip-path="none" /><flowRoot
       xml:space="preserve"
       id="flowRoot1572"
       style="font-style:normal;font-variant:normal;font-weight:normal;font-stretch:normal;font-size:40px;line-height:1.25;font-family:'Asimov Pro';-inkscape-font-specification:'Asimov Pro, Normal';font-variant-ligatures:normal;font-variant-caps:normal;font-variant-numeric:normal;font-variant-east-asian:normal;letter-spacing:0px;word-spacing:0px;display:inline;fill:#000000;fill-opacity:1;stroke:none"
       transform="matrix(0.81811124,0,0,0.81811124,-207.82361,-196.18084)"><flowRegion
         id="flowRegion1574"
         style="font-style:normal;font-variant:normal;font-weight:normal;font-stretch:normal;font-size:40px;font-family:'Asimov Pro';-inkscape-font-specification:'Asimov Pro, Normal';font-variant-ligatures:normal;font-variant-caps:normal;font-variant-numeric:normal;font-variant-east-asian:normal;fill:#000000;fill-opacity:1"><rect
           id="rect1576"
           width="487.01627"
           height="74.404915"
           x="133.73489"
           y="494.53864"
           style="font-style:normal;font-variant:normal;font-weight:normal;font-stretch:normal;font-family:'Asimov Pro';-inkscape-font-specification:'Asimov Pro, Normal';fill:#000000;fill-opacity:1;font-size:39.99999935px;font-variant-ligatures:normal;font-variant-caps:normal;font-variant-numeric:normal;font-variant-east-asian:normal" /></flowRegion><flowPara
         id="flowPara1578"
         style="font-style:normal;font-variant:normal;font-weight:normal;font-stretch:normal;font-size:40px;font-family:'Asimov Pro';-inkscape-font-specification:'Asimov Pro, Normal';font-variant-ligatures:normal;font-variant-caps:normal;font-variant-numeric:normal;font-variant-east-asian:normal;text-align:center;text-anchor:middle;fill:#000000;fill-opacity:1">bpcplot</flowPara></flowRoot></g></svg>
